<svg width="229" height="195" viewBox="0 0 229 195" fill="none" xmlns="http://www.w3.org/2000/svg">
<circle cx="115" cy="121" r="69" stroke="#FE2C55" stroke-width="10"/>
<path d="M53.5876 57.9058C53.3301 57.1045 54.1318 56.3692 54.9208 56.6831L68.4496 62.0657C69.134 62.338 69.2996 63.2217 68.7591 63.7173L59.6459 72.0749C59.1054 72.5706 58.2265 72.3411 58.0032 71.646L53.5876 57.9058Z" fill="#FE2C55"/>
<path d="M41.4908 37.4575L78.5956 50.4394C82.2477 51.7172 83.1325 56.4244 80.1876 58.9088L53.9371 81.0542C51.1831 83.3774 46.9207 82.1453 45.8623 78.72L35.008 43.5927C33.8021 39.6904 37.6 36.0963 41.4908 37.4575Z" stroke="#FE2C55" stroke-width="10"/>
<line x1="44.3848" y1="79.1093" x2="49.3848" y2="98.1093" stroke="#FE2C55" stroke-width="7"/>
<line x1="71.8213" y1="45.6388" x2="94.8213" y2="53.6388" stroke="#FE2C55" stroke-width="5"/>
<path d="M175.404 56.9058C175.662 56.1045 174.86 55.3692 174.071 55.6831L160.542 61.0657C159.858 61.338 159.692 62.2217 160.233 62.7173L169.346 71.0749C169.887 71.5706 170.765 71.3411 170.989 70.646L175.404 56.9058Z" fill="#FE2C55"/>
<path d="M187.501 36.4575L150.396 49.4394C146.744 50.7172 145.859 55.4244 148.804 57.9088L175.055 80.0542C177.809 82.3774 182.071 81.1453 183.13 77.72L193.984 42.5927C195.19 38.6904 191.392 35.0963 187.501 36.4575Z" stroke="#FE2C55" stroke-width="10"/>
<line y1="-3.5" x2="19.6469" y2="-3.5" transform="matrix(-0.254493 0.967075 0.967075 0.254493 187.992 79)" stroke="#FE2C55" stroke-width="7"/>
<line y1="-2.5" x2="24.3516" y2="-2.5" transform="matrix(-0.944497 0.328521 0.328521 0.944497 157.992 47)" stroke="#FE2C55" stroke-width="5"/>
<path d="M98 106C98 112.075 92.8513 117 86.5 117C80.1487 117 75 112.075 75 106C75 99.9249 80.1487 95 86.5 95C92.8513 95 98 99.9249 98 106Z" fill="#FE2C55"/>
<ellipse cx="142.5" cy="106" rx="11.5" ry="11" fill="#FE2C55"/>
<path d="M80.4637 143.516L66.2232 140.169L53 140.58" stroke="#FE2C55" stroke-width="5"/>
<line x1="63.0481" y1="160.688" x2="80.0481" y2="153.688" stroke="#FE2C55" stroke-width="5"/>
<path d="M150.536 140.74L164.777 137.393L178 137.804" stroke="#FE2C55" stroke-width="5"/>
<line y1="-2.5" x2="18.3848" y2="-2.5" transform="matrix(-0.924678 -0.38075 -0.38075 0.924678 167 160.224)" stroke="#FE2C55" stroke-width="5"/>
<path d="M115.366 150.5C114.981 151.167 114.019 151.167 113.634 150.5L105.407 136.25C105.022 135.583 105.503 134.75 106.273 134.75H122.727C123.497 134.75 123.978 135.583 123.593 136.25L115.366 150.5Z" fill="#FE2C55"/>
<line x1="114.5" y1="147" x2="114.5" y2="154" stroke="#FE2C55" stroke-width="5"/>
<path d="M114.658 151.109C119.54 154.94 124.633 161.931 131 156" stroke="#FE2C55" stroke-width="5"/>
<path d="M114.342 150.921C109.46 154.752 104.367 161.743 98 155.812" stroke="#FE2C55" stroke-width="5"/>
</svg>
